<svg width="40" height="41" viewBox="0 0 40 41" fill="none" xmlns="http://www.w3.org/2000/svg">
<path d="M12.5 8.32489V10.8249H36.25V15.7737L33.4766 24.5749H11.7134L8.58844 2.07184H1.25V4.57184H6.41156L9.53656 27.0749H35.31L38.75 16.1582V8.32489H12.5ZM13.8269 29.5987C12.5013 29.6002 11.2304 30.1275 10.293 31.0648C9.35565 32.0022 8.82838 33.2731 8.82688 34.5987C8.82688 35.9248 9.35366 37.1966 10.2913 38.1342C11.229 39.0719 12.5008 39.5987 13.8269 39.5987C15.153 39.5987 16.4247 39.0719 17.3624 38.1342C18.3001 37.1966 18.8269 35.9248 18.8269 34.5987C18.8254 33.2731 18.2981 32.0022 17.3608 31.0648C16.4234 30.1275 15.1525 29.6002 13.8269 29.5987ZM13.8269 37.0987C13.3324 37.0987 12.8491 36.9521 12.4379 36.6774C12.0268 36.4027 11.7064 36.0122 11.5172 35.5554C11.328 35.0986 11.2784 34.5959 11.3749 34.111C11.4714 33.626 11.7095 33.1806 12.0591 32.8309C12.4087 32.4813 12.8542 32.2432 13.3391 32.1467C13.8241 32.0503 14.3268 32.0998 14.7836 32.289C15.2404 32.4782 15.6308 32.7987 15.9056 33.2098C16.1803 33.6209 16.3269 34.1043 16.3269 34.5987C16.3261 35.2615 16.0624 35.8969 15.5938 36.3656C15.1251 36.8343 14.4897 37.0979 13.8269 37.0987ZM31.3269 29.5987C30.0013 29.6002 28.7304 30.1275 27.793 31.0648C26.8557 32.0022 26.3284 33.2731 26.3269 34.5987C26.3269 35.9248 26.8537 37.1966 27.7913 38.1342C28.729 39.0719 30.0008 39.5987 31.3269 39.5987C32.653 39.5987 33.9247 39.0719 34.8624 38.1342C35.8001 37.1966 36.3269 35.9248 36.3269 34.5987C36.3254 33.2731 35.7981 32.0022 34.8608 31.0648C33.9234 30.1275 32.6525 29.6002 31.3269 29.5987ZM31.3269 37.0987C30.8324 37.0987 30.3491 36.9521 29.938 36.6774C29.5268 36.4027 29.2064 36.0122 29.0172 35.5554C28.828 35.0986 28.7785 34.5959 28.8749 34.111C28.9714 33.626 29.2095 33.1806 29.5591 32.8309C29.9087 32.4813 30.3542 32.2432 30.8391 32.1467C31.3241 32.0503 31.8268 32.0998 32.2836 32.289C32.7404 32.4782 33.1308 32.7987 33.4055 33.2098C33.6803 33.6209 33.8269 34.1043 33.8269 34.5987C33.8261 35.2615 33.5624 35.8969 33.0938 36.3656C32.6251 36.8343 31.9897 37.0979 31.3269 37.0987Z" fill="white"/>
</svg>
