<svg width="82" height="20" viewBox="0 0 82 20" fill="none" xmlns="http://www.w3.org/2000/svg">
<path d="M5.7429 19L0.74858 1.54545H4.77983L7.66903 13.6733H7.81392L11.0014 1.54545H14.4531L17.6321 13.6989H17.7855L20.6747 1.54545H24.706L19.7116 19H16.1151L12.7912 7.58807H12.6548L9.33949 19H5.7429ZM31.1214 19.2557C29.7976 19.2557 28.6527 18.9744 27.6868 18.4119C26.7266 17.8437 25.9851 17.054 25.4624 16.0426C24.9396 15.0256 24.6783 13.8466 24.6783 12.5057C24.6783 11.1534 24.9396 9.97159 25.4624 8.96023C25.9851 7.94318 26.7266 7.15341 27.6868 6.59091C28.6527 6.02273 29.7976 5.73864 31.1214 5.73864C32.4453 5.73864 33.5874 6.02273 34.5476 6.59091C35.5135 7.15341 36.2578 7.94318 36.7805 8.96023C37.3033 9.97159 37.5646 11.1534 37.5646 12.5057C37.5646 13.8466 37.3033 15.0256 36.7805 16.0426C36.2578 17.054 35.5135 17.8437 34.5476 18.4119C33.5874 18.9744 32.4453 19.2557 31.1214 19.2557ZM31.1385 16.4432C31.7408 16.4432 32.2436 16.2727 32.647 15.9318C33.0504 15.5852 33.3544 15.1136 33.5589 14.517C33.7692 13.9205 33.8743 13.2415 33.8743 12.4801C33.8743 11.7188 33.7692 11.0398 33.5589 10.4432C33.3544 9.84659 33.0504 9.375 32.647 9.02841C32.2436 8.68182 31.7408 8.50852 31.1385 8.50852C30.5305 8.50852 30.0192 8.68182 29.6044 9.02841C29.1953 9.375 28.8857 9.84659 28.6754 10.4432C28.4709 11.0398 28.3686 11.7188 28.3686 12.4801C28.3686 13.2415 28.4709 13.9205 28.6754 14.517C28.8857 15.1136 29.1953 15.5852 29.6044 15.9318C30.0192 16.2727 30.5305 16.4432 31.1385 16.4432ZM45.8402 19.2557C44.5163 19.2557 43.3714 18.9744 42.4055 18.4119C41.4453 17.8437 40.7038 17.054 40.1811 16.0426C39.6584 15.0256 39.397 13.8466 39.397 12.5057C39.397 11.1534 39.6584 9.97159 40.1811 8.96023C40.7038 7.94318 41.4453 7.15341 42.4055 6.59091C43.3714 6.02273 44.5163 5.73864 45.8402 5.73864C47.1641 5.73864 48.3061 6.02273 49.2663 6.59091C50.2322 7.15341 50.9766 7.94318 51.4993 8.96023C52.022 9.97159 52.2834 11.1534 52.2834 12.5057C52.2834 13.8466 52.022 15.0256 51.4993 16.0426C50.9766 17.054 50.2322 17.8437 49.2663 18.4119C48.3061 18.9744 47.1641 19.2557 45.8402 19.2557ZM45.8572 16.4432C46.4595 16.4432 46.9624 16.2727 47.3658 15.9318C47.7692 15.5852 48.0732 15.1136 48.2777 14.517C48.4879 13.9205 48.593 13.2415 48.593 12.4801C48.593 11.7188 48.4879 11.0398 48.2777 10.4432C48.0732 9.84659 47.7692 9.375 47.3658 9.02841C46.9624 8.68182 46.4595 8.50852 45.8572 8.50852C45.2493 8.50852 44.7379 8.68182 44.3232 9.02841C43.9141 9.375 43.6044 9.84659 43.3942 10.4432C43.1896 11.0398 43.0874 11.7188 43.0874 12.4801C43.0874 13.2415 43.1896 13.9205 43.3942 14.517C43.6044 15.1136 43.9141 15.5852 44.3232 15.9318C44.7379 16.2727 45.2493 16.4432 45.8572 16.4432ZM61.6839 5.90909V8.63636H53.6044V5.90909H61.6839ZM55.4538 19V4.96307C55.4538 4.0142 55.6385 3.22727 56.0078 2.60227C56.3828 1.97727 56.8942 1.50852 57.5419 1.19602C58.1896 0.883522 58.9254 0.727272 59.7493 0.727272C60.3061 0.727272 60.8146 0.769886 61.2749 0.855114C61.7408 0.940341 62.0874 1.01705 62.3146 1.08523L61.6669 3.8125C61.5249 3.76705 61.3487 3.72443 61.1385 3.68466C60.9339 3.64489 60.7237 3.625 60.5078 3.625C59.9737 3.625 59.6016 3.75 59.3913 4C59.1811 4.24432 59.076 4.58807 59.076 5.03125V19H55.4538ZM63.902 19V5.90909H67.5327V19H63.902ZM65.7259 4.22159C65.1861 4.22159 64.723 4.04261 64.3366 3.68466C63.956 3.32102 63.7656 2.88636 63.7656 2.38068C63.7656 1.88068 63.956 1.4517 64.3366 1.09375C64.723 0.730113 65.1861 0.548295 65.7259 0.548295C66.2656 0.548295 66.7259 0.730113 67.1065 1.09375C67.4929 1.4517 67.6861 1.88068 67.6861 2.38068C67.6861 2.88636 67.4929 3.32102 67.1065 3.68466C66.7259 4.04261 66.2656 4.22159 65.7259 4.22159ZM70.3729 19V16.8352L76.782 8.90057V8.80682H70.5945V5.90909H81.1541V8.26989L75.1371 16.0085V16.1023H81.3757V19H70.3729Z" fill="white"/>
</svg>
